<?xml version="1.0" encoding="UTF-8"?>
<svg id="Layer_1" xmlns="http://www.w3.org/2000/svg" version="1.1" viewBox="0 0 380.8 40">
  <!-- Generator: Adobe Illustrator 29.5.1, SVG Export Plug-In . SVG Version: 2.1.0 Build 141)  -->
  <defs>
    <style>
      .st0 {
        fill: #3a04ff;
      }

      .st1 {
        fill: #110051;
      }
    </style>
  </defs>
  <g>
    <path class="st0" d="M37.3,1.6c.9-1,2.2-1.5,3.5-1.5,5.9,0,11.4,0,16.9,0,11,0,16.5,13.8,8.7,21.9l-16.9,17.6c-.8.8-2.1.2-2.1-.9v-15.5l2-2c1.6-1.6.5-4.4-1.7-4.4h-24.9L37.3,1.6Z"/>
    <path class="st0" d="M32.7,38.4c-.9,1-2.2,1.5-3.5,1.5H12.4c-11,0-16.5-13.8-8.7-21.9L20.6.4c.8-.8,2.1-.2,2.1.9v15.5s-2,2-2,2c-1.6,1.6-.5,4.4,1.7,4.4h24.9s-14.6,15.2-14.6,15.2Z"/>
  </g>
  <g>
    <path class="st1" d="M77.3,33l10.1-25.6h5.2l10,25.6h-6.1l-7.6-21.2h2.1l-7.8,21.2h-5.9ZM83.1,28.4v-4.6h13.9v4.6h-13.9Z"/>
    <path class="st1" d="M105.3,33V7.4h5.7v25.6h-5.7Z"/>
    <path class="st1" d="M122.8,33V7.4h5.7v25.6h-5.7ZM127.1,23.6v-4.5h5.5c.7,0,1.3-.1,1.9-.4.6-.3,1-.7,1.4-1.2.3-.6.5-1.2.5-2s-.2-1.5-.5-2c-.3-.6-.8-1-1.4-1.2-.6-.3-1.2-.4-1.9-.4h-5.5v-4.5h6.3c1.6,0,3.1.3,4.4,1,1.3.7,2.4,1.6,3.1,2.8.8,1.2,1.1,2.7,1.1,4.4s-.4,3.1-1.1,4.3-1.8,2.2-3.1,2.8c-1.3.7-2.8,1-4.4,1h-6.3Z"/>
    <path class="st1" d="M145.3,33V7.4h5.7v25.6h-5.7ZM149.2,33v-5h6.3c1.5,0,2.9-.3,4-.9s2-1.5,2.7-2.7c.6-1.2.9-2.6.9-4.2s-.3-3-1-4.1c-.6-1.2-1.5-2.1-2.7-2.7-1.1-.6-2.5-.9-4-.9h-6.5v-5h6.6c1.9,0,3.7.3,5.3.9,1.6.6,3.1,1.5,4.3,2.6s2.2,2.5,2.8,4c.7,1.5,1,3.3,1,5.2s-.3,3.6-1,5.1c-.7,1.6-1.6,2.9-2.8,4.1-1.2,1.1-2.6,2-4.3,2.7-1.6.6-3.4.9-5.3.9h-6.4Z"/>
    <path class="st1" d="M172.6,33V7.4h5.7v25.6h-5.7ZM177,12.3v-4.9h13.4v4.9h-13.4ZM177,23v-5h12.8v5h-12.8Z"/>
    <path class="st1" d="M200.5,33V7.4h4l1.7,5.1v20.5h-5.7ZM218.1,33l-15-19.3,1.4-6.3,15.1,19.3-1.4,6.3ZM218.1,33l-1.5-5.1V7.4h5.8v25.6h-4.2Z"/>
    <path class="st1" d="M235.2,33.3c-1.8,0-3.5-.4-4.9-1.2s-2.6-1.9-3.4-3.3c-.8-1.4-1.3-3-1.3-4.7s.4-3.3,1.2-4.6,2-2.5,3.4-3.3,3.1-1.2,5-1.2,3.4.4,4.9,1.2c1.5.8,2.6,1.9,3.5,3.3s1.3,2.9,1.3,4.7-.4,3.3-1.3,4.7c-.8,1.4-2,2.5-3.4,3.3s-3.1,1.2-4.9,1.2ZM235.2,28.3c.8,0,1.5-.2,2.1-.5.6-.3,1.1-.8,1.4-1.5s.5-1.4.5-2.2-.2-1.5-.5-2.1c-.3-.6-.8-1.1-1.4-1.4-.6-.4-1.3-.5-2-.5s-1.5.2-2.1.5c-.6.3-1.1.8-1.4,1.5-.3.6-.5,1.3-.5,2.1s.2,1.6.5,2.2c.3.6.8,1.1,1.4,1.5.6.3,1.3.5,2.1.5Z"/>
    <path class="st1" d="M245.8,20.1v-4.7h13.5v4.7h-13.5ZM249.7,33V8.1h5.6v24.9h-5.6Z"/>
    <path class="st1" d="M270,33.3c-1.9,0-3.6-.4-5.1-1.2-1.5-.8-2.6-1.9-3.5-3.3-.8-1.4-1.3-3-1.3-4.8s.4-3.3,1.2-4.7,1.9-2.5,3.4-3.3,3-1.2,4.8-1.2,3.3.4,4.6,1.1c1.3.7,2.4,1.8,3.2,3.1.8,1.3,1.2,2.9,1.2,4.6s0,.7,0,1c0,.3-.1.7-.2,1.2h-15.1c0,0,0-3.8,0-3.8h12.8c0,0-2.4,1.6-2.4,1.6,0-1-.2-1.8-.5-2.5-.3-.7-.7-1.2-1.3-1.5-.6-.4-1.2-.5-2-.5s-1.6.2-2.3.6c-.6.4-1.1,1-1.5,1.7-.4.7-.5,1.6-.5,2.6s.2,1.9.6,2.6c.4.7.9,1.3,1.6,1.7.7.4,1.5.6,2.4.6s1.6-.2,2.3-.5c.7-.3,1.3-.8,1.8-1.4l3.1,3c-.9,1-1.9,1.8-3.2,2.3-1.2.5-2.6.7-4.1.7Z"/>
    <path class="st1" d="M286.2,12.4v-5h21.7v5h-21.7ZM294.2,33V7.7h5.8v25.2h-5.8Z"/>
    <path class="st1" d="M313.8,33.3c-1.6,0-3-.4-4.3-1.2-1.3-.8-2.3-1.9-3-3.3-.7-1.4-1.1-2.9-1.1-4.7s.4-3.3,1.1-4.7c.7-1.4,1.7-2.5,3-3.3,1.3-.8,2.7-1.2,4.3-1.2s2.3.2,3.2.7,1.7,1.1,2.3,1.9c.6.8.9,1.7,1,2.8v7.6c0,1-.4,2-1,2.8-.6.8-1.4,1.4-2.3,1.9-1,.5-2,.7-3.2.7ZM314.9,28.3c1.2,0,2.1-.4,2.8-1.2.7-.8,1.1-1.8,1.1-3s-.2-1.5-.5-2.1c-.3-.6-.8-1.1-1.4-1.4-.6-.4-1.3-.5-2.1-.5s-1.4.2-2,.5c-.6.3-1.1.8-1.4,1.5-.4.6-.5,1.3-.5,2.1s.2,1.5.5,2.1c.3.6.8,1.1,1.4,1.5.6.3,1.3.5,2,.5ZM318.6,33v-4.7l.8-4.3-.8-4.2v-4.3h5.5v17.6h-5.5Z"/>
    <path class="st1" d="M328,33V6.7h5.6v26.3h-5.6ZM339.3,33l-6.1-9.1,6.1-8.5h6.2l-7.4,9.6.2-2.4,7.6,10.4h-6.6Z"/>
    <path class="st1" d="M355.7,33.3c-1.9,0-3.6-.4-5.1-1.2-1.5-.8-2.6-1.9-3.5-3.3-.8-1.4-1.3-3-1.3-4.8s.4-3.3,1.2-4.7,1.9-2.5,3.4-3.3,3-1.2,4.8-1.2,3.3.4,4.6,1.1c1.3.7,2.4,1.8,3.2,3.1.8,1.3,1.2,2.9,1.2,4.6s0,.7,0,1c0,.3-.1.7-.2,1.2h-15.1c0,0,0-3.8,0-3.8h12.8c0,0-2.4,1.6-2.4,1.6,0-1-.2-1.8-.5-2.5-.3-.7-.7-1.2-1.3-1.5-.6-.4-1.2-.5-2-.5s-1.6.2-2.3.6c-.6.4-1.1,1-1.5,1.7-.4.7-.5,1.6-.5,2.6s.2,1.9.6,2.6c.4.7.9,1.3,1.6,1.7.7.4,1.5.6,2.4.6s1.6-.2,2.3-.5c.7-.3,1.3-.8,1.8-1.4l3.1,3c-.9,1-1.9,1.8-3.2,2.3-1.2.5-2.6.7-4.1.7Z"/>
    <path class="st1" d="M366.8,33V15.3h5.6v17.6h-5.6ZM372.4,23.3l-2.3-1.8c.5-2.1,1.2-3.7,2.3-4.8,1.1-1.1,2.6-1.7,4.5-1.7s1.6.1,2.2.4c.6.3,1.2.6,1.7,1.1l-3.3,4.2c-.2-.2-.5-.4-.9-.6s-.8-.2-1.2-.2c-.9,0-1.7.3-2.2.9-.5.6-.8,1.4-.8,2.6Z"/>
  </g>
</svg>